ply
format ascii 1.0
element vertex 17 
property float x
property float y
property float z
element face 20 
property list uchar int vertex_indices
end_header
0.0 0.0 1.0
0.70710677 0.0 0.70710677 
0.21850799 0.6724985 0.70710677 
-0.5720614 0.41562688 0.70710677 
-0.57206136 -0.415627 0.70710677 
0.2185081 -0.67249846 0.70710677 
1.0 0.0 -4.371139E-8 
0.30901697 0.95105654 -4.371139E-8 
-0.80901706 0.5877852 -4.371139E-8 
-0.80901694 -0.58778536 -4.371139E-8 
0.30901712 -0.9510565 -4.371139E-8 
0.70710677 0.0 -0.70710677 
0.21850799 0.6724985 -0.70710677 
-0.5720614 0.41562688 -0.70710677 
-0.57206136 -0.415627 -0.70710677 
0.2185081 -0.67249846 -0.70710677 
0.0 0.0 -1.0
3 0 1 2 
3 0 2 3 
3 0 3 4 
3 0 4 5 
3 0 5 1 
4 1 6 7 2 
4 2 7 8 3 
4 3 8 9 4 
4 4 9 10 5 
4 5 10 6 1 
4 6 11 12 7 
4 7 12 13 8 
4 8 13 14 9 
4 9 14 15 10 
4 10 15 11 6 
3 16 12 11 
3 16 13 12 
3 16 14 13 
3 16 15 14 
3 16 11 15 